<svg xmlns="http://www.w3.org/2000/svg" viewBox="0 0 189 60"><defs><style>.cls-1{fill:#ff0;}.cls-2{fill:#1a1a1a;}.cls-3{font-size:18px;font-family:SourceSansPro-Bold, Source Sans Pro;font-weight:700;}.cls-4,.cls-6{fill:none;stroke:#000;stroke-miterlimit:10;stroke-width:2px;}.cls-5{fill:#fff;}.cls-6{fill-rule:evenodd;}</style></defs><title>Asset 2</title><g id="Layer_2" data-name="Layer 2"><g id="Layer_1-2" data-name="Layer 1"><rect class="cls-1" y="7" width="183" height="53" rx="26.5" ry="26.5"/><path class="cls-2" d="M162.5,3a23.5,23.5,0,0,1,0,47H32.5a23.5,23.5,0,0,1,0-47h130m0-3H32.5A26.58,26.58,0,0,0,6,26.5H6A26.58,26.58,0,0,0,32.5,53h130A26.58,26.58,0,0,0,189,26.5h0A26.58,26.58,0,0,0,162.5,0Z"/><text class="cls-3" transform="translate(74.12 33.08)">RESUME</text><circle class="cls-4" cx="44" cy="27" r="11"/><line class="cls-4" x1="43.88" y1="21" x2="43.88" y2="32.42"/><line class="cls-5" x1="43.88" y1="21" x2="43.88" y2="32.42"/><polyline class="cls-6" points="49.59 27.1 43.88 32.81 38.17 27.1"/></g></g></svg>